<svg height="512pt" viewBox="0 -37 512.00101 512" width="512pt" xmlns="http://www.w3.org/2000/svg">
  <path
    d="m102.207031 241.773438h18.039063v18.039062c0 4.167969 3.378906 7.546875 7.546875 7.546875h49.960937c4.167969 0 7.546875-3.378906 7.546875-7.546875v-18.039062h18.039063c4.167968 0 7.546875-3.378907 7.546875-7.546876v-49.960937c0-4.164063-3.378907-7.542969-7.546875-7.542969h-18.039063v-18.039062c0-4.167969-3.378906-7.546875-7.546875-7.546875h-49.960937c-4.167969 0-7.546875 3.378906-7.546875 7.546875v18.039062h-18.039063c-4.167969 0-7.542969 3.378906-7.542969 7.542969v49.960937c0 4.167969 3.375 7.546876 7.542969 7.546876zm7.546875-49.960938h18.039063c4.167969 0 7.546875-3.378906 7.546875-7.546875v-18.039063h34.867187v18.039063c0 4.167969 3.378907 7.546875 7.546875 7.546875h18.039063v34.867188h-18.039063c-4.167968 0-7.546875 3.378906-7.546875 7.546874v18.039063h-34.867187v-18.039063c0-4.167968-3.378906-7.546874-7.546875-7.546874h-18.039063zm0 0"/>
  <path
    d="m510.183594 209.394531s-1.382813-1.617187-1.386719-1.621093l-87.371094-101.980469c-1.253906-1.464844-3.011719-2.386719-4.910156-2.59375-.269531-.03125-.542969-.042969-.820313-.042969h-13.417968v-18.324219c0-18.753906-15.253906-34.007812-34.003906-34.007812s-34.003907 15.253906-34.003907 34.007812v18.324219h-9.921875v-17.859375c0-4.167969-3.375-7.546875-7.542968-7.546875h-212.746094c-4.167969 0-7.546875 3.378906-7.546875 7.546875s3.378906 7.546875 7.546875 7.546875h205.195312v220.933594h-123.046875c-13.714843-15.289063-33.605469-24.925782-55.710937-24.925782-22.105469 0-41.996094 9.636719-55.714844 24.925782h-59.691406v-196.953125c0-13.226563 10.761718-23.984375 23.984375-23.984375h34.800781c4.167969 0 7.546875-3.378906 7.546875-7.542969 0-4.167969-3.378906-7.546875-7.546875-7.546875h-34.800781c-21.542969 0-39.074219 17.527344-39.074219 39.074219v202.742187c0 3.296875.414062 6.496094 1.1875 9.554688.011719.050781.019531.097656.03125.148437.070312.269531.152344.535157.226562.804688.101563.355469.195313.710937.304688 1.058593.042969.140626.09375.277344.136719.414063.152343.476563.3125.953125.480469 1.421875.023437.054688.046874.109375.066406.167969 2.863281 7.730469 8.089844 14.277343 14.785156 18.808593.015625.007813.03125.019532.046875.027344 6.347656 4.265625 14.15625 6.667969 21.8125 6.667969h16.75c-.113281 1.679687-.191406 3.363281-.191406 5.070313 0 41.277343 33.582031 74.859374 74.859375 74.859374 41.28125 0 74.863281-33.582031 74.863281-74.859374 0-1.707032-.078125-3.390626-.191406-5.070313h44.90625c4.167969 0 7.546875-3.375 7.546875-7.542969 0-4.167968-3.378906-7.546875-7.546875-7.546875h-47.496094c-1.4375-5.136719-3.40625-10.054687-5.855469-14.6875h112.53125v14.6875h-28.996094c-4.167968 0-7.546874 3.378907-7.546874 7.546875 0 4.167969 3.378906 7.542969 7.546874 7.542969h70.261719c-.136719 1.675781-.222656 3.363281-.222656 5.070313 0 34.371093 27.960937 62.332031 62.332031 62.332031s62.332032-27.960938 62.332032-62.332031c0-1.707032-.089844-3.394532-.222657-5.070313h29.71875c4.164063 0 7.542969-3.375 7.542969-7.542969v-136.792968c0-1.800782-.644531-3.542969-1.816406-4.910157zm-471.109375 134.15625c-9.410157 0-18.292969-5.816406-22.039063-14.527343-.023437-.050782-.046875-.105469-.066406-.15625h47.296875c-2.445313 4.628906-4.414063 9.546874-5.855469 14.683593.003906 0-19.332031 0-19.335937 0zm91.421875 79.933594c-32.957032 0-59.769532-26.816406-59.769532-59.773437 0-32.957032 26.8125-59.769532 59.769532-59.769532 32.957031 0 59.769531 26.8125 59.769531 59.769532 0 32.957031-26.8125 59.773437-59.769531 59.773437zm366.011718-201.195313v50.585938h-14.714843v-50.585938zm-9.839843-17.152343h-69.558594c-21.316406 0-38.65625-17.339844-38.65625-38.65625v-48.234375h33.769531zm-137.308594-120.308594c0-10.429687 8.484375-18.914063 18.910156-18.914063 10.429688 0 18.914063 8.484376 18.914063 18.914063v16.265625h-37.828125v-16.265625zm14.003906 33.417969v48.234375c0 2.132812.136719 4.230469.378907 6.292969v121.894531c0 4.167969 3.378906 7.546875 7.546874 7.546875 4.167969 0 7.546876-3.378906 7.546876-7.546875v-90.5c9.753906 9.90625 23.304687 16.0625 38.273437 16.0625h49.589844v60.191406c0 4.167969 3.378906 7.546875 7.546875 7.546875h22.660156v25.804688h-46.484375c-.167969 0-.332031.015624-.5.023437-10.40625-7.792969-23.320313-12.417969-37.296875-12.417969-13.957031 0-26.863281 4.613282-37.261719 12.394532h-51.019531v-195.527344zm-39.015625 225.304687v-14.683593h36.621094c-3.050781 4.507812-5.511719 9.445312-7.308594 14.683593zm88.28125 67.402344c-26.050781 0-47.242187-21.191406-47.242187-47.242187 0-26.046876 21.191406-47.238282 47.242187-47.238282 26.046875 0 47.242188 21.191406 47.242188 47.238282-.003906 26.050781-21.195313 47.242187-47.242188 47.242187zm84.28125-67.402344h-25.316406c-1.796875-5.238281-4.257812-10.175781-7.308594-14.683593h32.625zm0 0"/>
  <path
    d="m368.269531 40.570312c4.167969 0 7.546875-3.378906 7.546875-7.546874v-25.476563c0-4.167969-3.378906-7.546875-7.546875-7.546875-4.164062 0-7.542969 3.378906-7.542969 7.546875v25.476563c0 4.167968 3.378907 7.546874 7.542969 7.546874zm0 0"/>
  <path
    d="m403.582031 49.636719c1.414063 1.1875 3.140625 1.769531 4.851563 1.769531 2.152344 0 4.289062-.914062 5.78125-2.6875l16.398437-19.5c2.683594-3.1875 2.273438-7.949219-.917969-10.628906-3.1875-2.683594-7.949218-2.273438-10.632812.917968l-16.398438 19.496094c-2.683593 3.1875-2.269531 7.949219.917969 10.632813zm0 0"/>
  <path
    d="m322.328125 48.714844c1.492187 1.777344 3.628906 2.691406 5.777344 2.691406 1.714843 0 3.441406-.582031 4.855469-1.773438 3.1875-2.679687 3.601562-7.441406.917968-10.628906l-16.398437-19.5c-2.683594-3.1875-7.441407-3.597656-10.632813-.917968-3.1875 2.683593-3.597656 7.445312-.917968 10.632812zm0 0"/>
  <path
    d="m412.628906 338.035156c-14.160156 0-25.679687 11.519532-25.679687 25.675782 0 14.160156 11.519531 25.679687 25.679687 25.679687 14.15625 0 25.675782-11.519531 25.675782-25.679687 0-14.15625-11.519532-25.675782-25.675782-25.675782zm0 36.261719c-5.835937 0-10.585937-4.75-10.585937-10.585937 0-5.835938 4.75-10.585938 10.585937-10.585938 5.835938 0 10.585938 4.75 10.585938 10.585938 0 5.835937-4.75 10.585937-10.585938 10.585937zm0 0"/>
  <path
    d="m130.496094 333.890625c-16.445313 0-29.824219 13.375-29.824219 29.820313 0 16.445312 13.378906 29.824218 29.824219 29.824218 16.445312 0 29.824218-13.378906 29.824218-29.824218 0-16.445313-13.378906-29.820313-29.824218-29.820313zm0 44.554687c-8.125 0-14.730469-6.609374-14.730469-14.734374 0-8.121094 6.605469-14.730469 14.730469-14.730469s14.730468 6.609375 14.730468 14.730469c0 8.125-6.609374 14.734374-14.730468 14.734374zm0 0"/>
</svg>
