<svg viewBox="0 -92 511.99942 511" xmlns="http://www.w3.org/2000/svg"><path d="m40.40625 177.046875c3.085938 2.765625 7.828125 2.503906 10.59375-.578125 2.761719-3.085938 2.503906-7.828125-.582031-10.59375-.019531-.015625-1.753907-1.761719 1.167969-5.992188 8.109374-11.738281 3.035156-22.304687-.78125-26.25-2.878907-2.976562-7.628907-3.058593-10.605469-.175781-2.976563 2.878907-3.058594 7.628907-.175781 10.605469.101562.105469 2.445312 2.621094-.78125 7.296875-8.320313 12.039063-2.875 22.066406 1.164062 25.6875zm0 0"/><path d="m230.1875 97.488281c3.085938 2.765625 7.828125 2.503907 10.59375-.582031 2.761719-3.082031 2.503906-7.824219-.582031-10.589844-.019531-.015625-1.753907-1.765625 1.164062-5.992187 8.113281-11.742188 3.039063-22.304688-.777343-26.25-2.878907-2.976563-7.628907-3.058594-10.605469-.175781-2.976563 2.878906-3.058594 7.625-.175781 10.605468.101562.101563 2.445312 2.621094-.78125 7.292969-8.316407 12.042969-2.875 22.070313 1.164062 25.691406zm0 0"/><path d="m283.234375 46.199219c3.085937 2.765625 7.828125 2.503906 10.59375-.578125 2.761719-3.085938 2.503906-7.828125-.582031-10.59375-.019532-.015625-1.753906-1.761719 1.167968-5.992188 8.109376-11.738281 3.035157-22.300781-.78125-26.25-2.878906-2.976562-7.628906-3.058594-10.605468-.175781-2.976563 2.878906-3.054688 7.628906-.175782 10.605469.101563.105468 2.445313 2.625-.78125 7.296875-8.316406 12.039062-2.875 22.066406 1.164063 25.6875zm0 0"/><path d="m359.164062 319.339844c0 4.144531 3.359376 7.5 7.5 7.5h134.878907c6.589843 0 11.535156-6.019532 10.253906-12.449219-1.28125-6.4375-5.007813-12.078125-10.363281-15.796875 1.847656-20.390625-13.203125-37.964844-32.996094-39.839844-.21875-.019531-.429688-.027344-.644531-.042968-2.777344-6.082032-7.34375-11.28125-13.109375-14.792969 4.480468-33.851563-25.320313-62.3125-59.015625-56.066407-5.335938-14.261718-17.921875-24.949218-32.894531-27.839843-2.035157-12.25-8.144532-23.046875-16.804688-31.066407l3-11.199218c2.269531-8.472656-1.886719-17.175782-9.464844-20.917969l6.378906-23.808594c2.910157-.390625 5.441407-2.464843 6.25-5.476562 1.070313-4.003907-1.304687-8.113281-5.304687-9.1875l-4.460937-1.195313c-32.027344-8.582031 8.496093 2.277344-23.558594-6.3125-4.003906-1.070312-8.117188 1.300782-9.1875 5.304688-.808594 3.015625.339844 6.089844 2.667968 7.882812l-6.375 23.792969c-8.441406-.542969-16.386718 4.910156-18.65625 13.382813l-5.425781 20.242187c-5.90625 3.347656-11.214843 7.773437-15.566406 13.128906-7.390625-2.949219-15.417969-3.171875-22.628906-1.082031-5.914063-7.214844-13.609375-12.714844-22.347657-15.949219-3.886718-1.4375-8.199218.542969-9.636718 4.425781-1.441406 3.886719.542968 8.199219 4.425781 9.640626 6.566406 2.429687 12.316406 6.660156 16.621094 12.226562 3.363281 4.34375 9.101562 6.082031 14.277343 4.328125 4.714844-1.601563 10.125-1.425781 14.957032.882813 5.230468 2.496093 11.496094.972656 14.902344-3.628907 21.335937-28.835937 66.519531-16.785156 71.304687 18.152344.777344 5.675781 5.132813 10.09375 10.84375 10.996094 10.820313 1.710937 19.910156 9.585937 23.15625 20.066406 1.894531 6.128906 8.339844 9.773437 14.675781 8.292969 23.628906-5.507813 45.652344 13.839844 43.105469 38.089844-.550781-.167969-1.109375-.320313-1.671875-.460938-6.613281-31.679688-46.878906-42.710938-68.636719-18.160156-4.324219-1.402344-9.183593-1.671875-13.84375-.617188-7.265625-8.195312-17.523437-12.804687-28.496093-12.804687-15.878907 0-29.824219 9.632812-35.511719 24.21875-22.363281-2.84375-43.496094 10.320312-51.171875 30.960937-.882813-.027344-2.039063.011719-2.851563.066406-2.152343.136719-4.441406.589844-5.441406.847657h-95.070313c13.492188-20.320313 37.234376-13.882813 34.0625-14.457031 5.898438 1.066406 11.796876-2.375 13.601563-8.171876 5.699219-18.292968 29.535156-22.351562 41.125-7.371093 2.929687 3.78125 7.929687 5.292969 12.441406 3.761719 2.800781-.949219 5.9375-.761719 8.605469.507812 3.738281 1.785156 8.214844.203125 10-3.535156 1.785156-3.738282.199219-8.214844-3.539062-10-5.554688-2.652344-11.679688-3.195313-17.296876-1.910156-16.234374-18.367188-45.269531-16.992188-59.746093 2.457031l-.601563-2.246094c-2.273437-8.472656-10.195312-13.9375-18.660156-13.382813l-6.375-23.789062c2.328125-1.792969 3.476562-4.871094 2.667969-7.886719-1.070313-4-5.183594-6.375-9.183594-5.304687l-4.460937 1.195312s0 0-.003907 0l-19.097656 5.117188s-.003906.003906-.003906.003906l-4.457031 1.195312c-4 1.070313-6.375 5.183594-5.304688 9.183594.808594 3.015625 3.34375 5.089844 6.25 5.480469l6.378906 23.804687c-7.40625 3.652344-11.78125 12.28125-9.464844 20.921876l6.378907 23.804687c-.089844.207031-.179688.414063-.265625.621094h-104.738282c-.066406 0-.269531 0-.4375-.21875-.128906-.171875-.097656-.289063-.078124-.359375 3.050781-10.9375 12.292968-22.558594 23.40625-22.558594h.011718c5.925782 0 11.273438-4.304688 11.941406-10.171875 1.597657-13.933594 14.609376-23.65625 28.472657-21.238281 5.890625 1.03125 11.585937-2.566406 13.21875-8.371094 7.15625-25.484375 32.835937-41.933594 59.421875-37.074219 6.96875 1.269531 13.8125-2.8125 15.902344-9.515625 3.074218-9.867187 10.195312-18.101562 19.535156-22.59375 3.734375-1.792968 5.304687-6.273437 3.511718-10.007812-1.796874-3.734375-6.28125-5.304688-10.011718-3.511719-12.785156 6.148437-22.601563 17.3125-27.058594 30.726563-33.078125-5.621094-64.753906 14.222656-74.90625 45.167968-1.273438-.125-2.550781-.1875-3.828125-.1875-19.015625 0-35.144531 13.503906-38.695313 31.875-17.507812 1.414063-30.933593 17.515625-35.371093 33.433594-2.746094 9.851562 4.710937 19.605469 14.964843 19.605469h198.046876c-.972657 1.898437-1.765626 3.914062-2.308594 6.035156-12.164063 1.921875-21.363282 13.191406-24.46875 24.332031-2.296875 8.234375 3.921875 16.398438 12.503906 16.398438h132.351562c4.144532 0 7.5-3.355469 7.5-7.5 0-4.140625-3.355468-7.5-7.5-7.5h-129.484374c2.433593-5.773438 7.386718-11.015625 12.75-11.015625h.003906c5.097656 0 9.902344-3.667969 10.519531-9.050781 1.179687-10.296876 11.414063-12.421876 10.070313-12.015626 3.308593-.996093 5.804687-.484374 7.144531-.328124 5.039062.597656 9.761719-2.53125 11.152343-7.484376 4.570313-16.261718 20.9375-26.671874 37.816407-23.59375 5.941406 1.089844 11.769531-2.40625 13.554687-8.125 3.027344-9.714843 11.902344-16.242187 22.085938-16.242187 7.207031 0 13.878906 3.28125 18.304687 8.996094 2.964844 3.835937 7.972657 5.242187 12.386719 3.753906 2.734375-.929687 5.808594-.75 8.414062.492187 4.59375 2.195313 10.105469.851563 13.109376-3.207031 13.203124-17.847656 41.390624-10.460937 44.367187 11.292969.65625 4.792969 4.332031 8.734375 9.382813 9.53125 6.492187 1.023438 11.949218 5.746094 13.894531 12.039062 1.144531 3.691407 4.164062 6.355469 7.742187 7.238282 4.464844 1.105468 5.894532-1.023438 12.144532-.429688 12.160156 1.148438 21.21875 12.316406 19.3125 24.855469-.71875 4.757813 1.578124 9.523437 5.71875 11.855469.71875.40625 1.378906.890625 1.96875 1.441406h-127.359376c-4.140624-.003906-7.5 3.355469-7.5 7.496094zm-60.117187-204.171875 2.699219-10.074219c.4375-1.625 2.171875-2.632812 3.800781-2.195312 6.097656 1.636718 12.398437-2 14.03125-8.101563l7.054687-26.324219 4.609376 1.238282-7.054688 26.324218c-1.636719 6.101563 2 12.394532 8.101562 14.03125 1.621094.433594 2.628907 2.175782 2.191407 3.796875l-1.609375 6.007813c-10.558594-5.203125-22.664063-6.71875-33.824219-4.703125zm-141.457031 110.628906c1.628906-.4375 3.363281.566406 3.800781 2.191406l1.902344 7.113281c-11.933594.492188-23.050781 5.207032-31.53125 13.257813l-3.105469-11.601563c-.433594-1.617187.550781-3.359374 2.191406-3.796874 2.957032-.792969 5.425782-2.6875 6.957032-5.339844 1.53125-2.648438 1.9375-5.734375 1.144531-8.691406l-7.050781-26.324219 4.605468-1.234375 7.054688 26.324218c1.632812 6.101563 7.929687 9.738282 14.03125 8.101563zm0 0"/><path d="m93.910156 132.566406c3.085938 2.765625 7.828125 2.503906 10.589844-.578125 2.765625-3.085937 2.503906-7.828125-.578125-10.59375-.019531-.015625-1.757813-1.761719 1.164063-5.992187 8.109374-11.738282 3.035156-22.304688-.777344-26.25-2.882813-2.976563-7.628906-3.058594-10.605469-.175782-2.980469 2.878907-3.058594 7.628907-.179687 10.605469.101562.105469 2.449218 2.621094-.777344 7.292969-8.320313 12.042969-2.875 22.070312 1.164062 25.691406zm0 0"/><path d="m152.496094 99.816406c3.089844 2.765625 7.832031 2.5 10.59375-.582031 2.765625-3.085937 2.503906-7.828125-.582032-10.589844-.015624-.019531-1.753906-1.765625 1.167969-5.992187 8.109375-11.742188 3.035157-22.304688-.78125-26.25-2.878906-2.980469-7.628906-3.058594-10.605469-.179688-2.976562 2.882813-3.054687 7.628906-.175781 10.605469.101563.105469 2.445313 2.625-.78125 7.296875-8.320312 12.039062-2.875 22.070312 1.164063 25.691406zm0 0"/><path d="m382.761719 146.917969c3.085937 2.765625 7.828125 2.503906 10.589843-.578125 2.765626-3.085938 2.503907-7.828125-.582031-10.59375-.015625-.015625-1.753906-1.761719 1.167969-5.992188 8.109375-11.738281 3.035156-22.300781-.78125-26.25-2.878906-2.976562-7.625-3.058594-10.605469-.175781-2.976562 2.878906-3.054687 7.628906-.175781 10.605469.101562.105468 2.449219 2.625-.78125 7.296875-8.316406 12.039062-2.875 22.066406 1.167969 25.6875zm0 0"/></svg>