<svg width="32" height="32" viewBox="0 0 32 32" fill="none" xmlns="http://www.w3.org/2000/svg">
<path d="M22.6713 6.71944H26.3064C27.2151 6.71944 28 7.46894 28 8.39479V25.3247C28 26.2505 27.2565 27 26.3064 27H5.69363C4.78485 27 4 26.2505 4 25.3247V8.39479C4 7.46894 4.74355 6.71944 5.69363 6.71944H11.0637V5" stroke="#969BA4" stroke-miterlimit="10" stroke-linecap="round" stroke-linejoin="round"/>
<path d="M14.3267 7.0708H20.3267V5.0708" stroke="#969BA4" stroke-miterlimit="10" stroke-linecap="round" stroke-linejoin="round"/>
<path d="M4 12H28" stroke="#969BA4" stroke-miterlimit="10" stroke-linecap="round"/>
<path d="M7 16H25" stroke="#969BA4" stroke-miterlimit="10" stroke-linecap="round"/>
<path d="M7 19H25" stroke="#969BA4" stroke-miterlimit="10" stroke-linecap="round"/>
<path d="M18 22H25" stroke="#969BA4" stroke-miterlimit="10" stroke-linecap="round"/>
<path d="M9.45166 5.47863V4.66667C9.45166 3.76923 10.1539 3 11.0627 3C11.9301 3 12.6737 3.7265 12.6737 4.66667V8" stroke="#969BA4" stroke-miterlimit="10" stroke-linecap="round"/>
<path d="M18.8716 5.4359V4.66667C18.8716 3.7265 19.5639 3 20.3716 3C21.1793 3 21.8716 3.7265 21.8716 4.66667V8" stroke="#969BA4" stroke-miterlimit="10" stroke-linecap="round"/>
</svg>
