<svg width="24" height="24" viewBox="0 0 24 24" fill="none" xmlns="http://www.w3.org/2000/svg">
<circle cx="12" cy="12" r="12" fill="#FF7987"/>
<path d="M14.1122 6.00172C14.0497 6.00847 13.9913 6.03613 13.9465 6.0802L7.63252 12.3933C7.58595 12.4386 7.55666 12.4987 7.54968 12.5633L7.35345 14.3377C7.34856 14.3796 7.35321 14.422 7.36704 14.4617C7.38087 14.5015 7.40352 14.5377 7.43331 14.5674C7.46309 14.5972 7.49923 14.6199 7.53902 14.6337C7.57881 14.6475 7.62121 14.6522 7.66305 14.6473L9.43777 14.4467C9.50026 14.44 9.55864 14.4123 9.60346 14.3683L15.9174 8.0552C15.9437 8.02925 15.9645 7.99835 15.9787 7.9643C15.9929 7.93025 16.0002 7.89373 16.0002 7.85683C16.0002 7.81994 15.9929 7.7834 15.9787 7.74935C15.9645 7.7153 15.9437 7.68441 15.9174 7.65846L14.339 6.0802C14.3094 6.05108 14.2737 6.02892 14.2345 6.01535C14.1952 6.00177 14.1535 5.99712 14.1122 6.00172Z" fill="#F5F7F7"/>
<rect x="6" y="16" width="11" height="1" fill="#F5F7F7"/>
</svg>
