<svg width="24" height="24" viewBox="0 0 24 24" fill="none" xmlns="http://www.w3.org/2000/svg">
<circle cx="12" cy="12" r="9.5" stroke="#FF7987"/>
<path d="M12 8.90698C11.7132 8.90698 11.4729 8.81783 11.2791 8.63954C11.093 8.45349 11 8.22481 11 7.95349C11 7.68217 11.093 7.45736 11.2791 7.27907C11.4729 7.09302 11.7132 7 12 7C12.2868 7 12.5233 7.09302 12.7093 7.27907C12.9031 7.45736 13 7.68217 13 7.95349C13 8.22481 12.9031 8.45349 12.7093 8.63954C12.5233 8.81783 12.2868 8.90698 12 8.90698ZM13 10.6744V17.1163H11V10.6744H13Z" fill="#FF7987"/>
</svg>
