<svg width="32" height="32" viewBox="0 0 32 32" fill="none" xmlns="http://www.w3.org/2000/svg">
<path d="M13.2407 16C13.2407 16 12.8634 17.6071 12.6933 17.6071C4.58431 18.3095 3.14695 20.9164 4.39449 27.388C4.56461 28.3411 4.96155 29.194 5.30179 29.9967C5.52862 30.5987 6.20909 31 6.94627 31H25.149C25.8862 31 26.5666 30.5987 26.7935 29.9465C27.077 29.1438 27.4739 28.3411 27.644 27.388C28.7782 20.9164 27.4936 18.3597 19.4981 17.6071C19.3279 17.6071 18.9113 16 18.9113 16" stroke="#969BA4" stroke-miterlimit="10" stroke-linecap="round"/>
<path d="M20.8286 8.91304C20.0415 12.8696 17.4341 14 16.0074 14C14.5807 14 11.9733 12.8696 11.1862 8.91304C10.5958 6.08696 11.1862 1 16.0074 1C20.8286 1 21.3698 6.08696 20.8286 8.91304Z" stroke="#969BA4" stroke-miterlimit="10" stroke-linecap="round" stroke-linejoin="round"/>
</svg>
