<svg height="511pt" viewBox="-89 0 511 511.99957" width="511pt" xmlns="http://www.w3.org/2000/svg"><path d="m311.429688 279.492188c13.75-14.109376 21.324218-32.734376 21.324218-52.441407 0-9.554687-7.773437-17.328125-17.332031-17.328125h-48.464844v-47.414062c16.871094-2.085938 32.453125-9.792969 44.472657-22.125 13.75-14.109375 21.324218-32.734375 21.324218-52.441406 0-9.554688-7.773437-17.328126-17.332031-17.328126h-48.464844v-10.890624c0-11.382813-5.515625-22.144532-14.753906-28.785157l-7.980469-5.746093c-23.050781-16.578126-50.226562-25.195313-78.628906-24.98828175-28.390625.23046875-55.4375 9.31249975-78.214844 26.26171875l-6.078125 4.523437c-8.949219 6.660157-14.289062 17.292969-14.289062 28.449219v11.175781h-49.179688c-9.558593 0-17.332031 7.773438-17.332031 17.332032 0 19.710937 7.574219 38.335937 21.335938 52.449218 12.1875 12.5 28.035156 20.230469 45.175781 22.183594v47.34375h-49.179688c-9.558593 0-17.332031 7.773438-17.332031 17.332032 0 19.710937 7.574219 38.335937 21.335938 52.449218 12.1875 12.5 28.035156 20.230469 45.175781 22.1875v47.339844h-49.179688c-9.558593 0-17.332031 7.773438-17.332031 17.332031 0 19.710938 7.578125 38.339844 21.335938 52.449219 12.1875 12.5 28.035156 20.230469 45.175781 22.1875v53.207031c0 9.808594 7.980469 17.792969 17.792969 17.792969h164.359374c9.8125 0 17.792969-7.984375 17.792969-17.792969v-53.28125c16.871094-2.085937 32.453125-9.792969 44.472657-22.125 13.75-14.109375 21.324218-32.730469 21.324218-52.4375 0-9.558593-7.773437-17.332031-17.332031-17.332031h-.964844c-4.121093 0-7.460937 3.339844-7.460937 7.460938 0 4.121093 3.339844 7.460937 7.460937 7.460937h.964844c1.328125 0 2.410156 1.082031 2.410156 2.410156 0 30.25-21.800781 55.042969-50.875 59.492188v-61.902344h12.683594c4.121094 0 7.460937-3.339844 7.460937-7.460937 0-4.121094-3.339843-7.460938-7.460937-7.460938h-12.683594v-47.414062c16.871094-2.085938 32.453125-9.792969 44.472657-22.125zm3.992187-54.847657c1.328125 0 2.410156 1.078125 2.410156 2.40625 0 30.253907-21.800781 55.046875-50.875 59.492188v-61.898438zm0-139.3125c1.328125 0 2.410156 1.082031 2.410156 2.410157 0 30.25-21.800781 55.046874-50.875 59.492187v-61.902344zm-300 141.71875c0-1.328125 1.078125-2.40625 2.410156-2.40625h49.179688v62.007813c-29.433594-4.144532-51.589844-29.097656-51.589844-59.601563zm0 139.3125c0-1.328125 1.078125-2.410156 2.410156-2.410156h49.179688v62.007813c-29.433594-4.144532-51.589844-29.097657-51.589844-59.597657zm236.613281 127.84375c0 1.582031-1.289062 2.871094-2.875 2.871094h-164.355468c-1.582032 0-2.875-1.289063-2.875-2.871094v-352.308593c0-4.117188-3.339844-7.460938-7.460938-7.460938s-7.460938 3.339844-7.460938 7.460938v5.445312c-29.433593-4.148438-51.589843-29.097656-51.589843-59.601562 0-1.328126 1.082031-2.410157 2.410156-2.410157h49.179687v22.269531c0 4.121094 3.339844 7.460938 7.460938 7.460938s7.460938-3.339844 7.460938-7.460938v-48.363281c0-6.460937 3.09375-12.621093 8.277343-16.480469l6.078125-4.523437c41.390625-30.800781 97.339844-31.253906 139.21875-1.128906l7.984375 5.742187c5.351563 3.851563 8.546875 10.082032 8.546875 16.675782zm0 0"/><path d="m166.304688 94.882812c-23.730469 0-43.035157 19.308594-43.035157 43.039063s19.304688 43.035156 43.035157 43.035156c23.730468 0 43.035156-19.304687 43.035156-43.035156s-19.304688-43.039063-43.035156-43.039063zm0 71.152344c-15.503907 0-28.117188-12.613281-28.117188-28.113281 0-15.503906 12.613281-28.117187 28.117188-28.117187 15.503906 0 28.113281 12.613281 28.113281 28.117187 0 15.5-12.609375 28.113281-28.113281 28.113281zm0 0"/><path d="m166.304688 70.742188c-37.042969 0-67.179688 30.136718-67.179688 67.179687s30.136719 67.179687 67.179688 67.179687c37.042968 0 67.179687-30.136718 67.179687-67.179687s-30.136719-67.179687-67.179687-67.179687zm0 119.4375c-28.816407 0-52.261719-23.441407-52.261719-52.257813s23.445312-52.257813 52.261719-52.257813c28.816406 0 52.257812 23.441407 52.257812 52.257813s-23.441406 52.257813-52.257812 52.257813zm0 0"/><path d="m166.304688 210.007812c-37.042969 0-67.179688 30.136719-67.179688 67.179688s30.136719 67.179688 67.179688 67.179688c37.042968 0 67.179687-30.136719 67.179687-67.179688s-30.136719-67.179688-67.179687-67.179688zm0 119.4375c-28.816407 0-52.261719-23.441406-52.261719-52.257812s23.445312-52.257812 52.261719-52.257812c28.816406 0 52.257812 23.441406 52.257812 52.257812s-23.441406 52.257812-52.257812 52.257812zm0 0"/><path d="m166.304688 234.152344c-23.730469 0-43.035157 19.304687-43.035157 43.035156s19.304688 43.035156 43.035157 43.035156c8.554687 0 16.828124-2.515625 23.921874-7.273437 3.421876-2.296875 4.335938-6.929688 2.042969-10.351563-2.296875-3.421875-6.933593-4.335937-10.355469-2.042968-4.628906 3.105468-10.023437 4.746093-15.609374 4.746093-15.503907 0-28.117188-12.609375-28.117188-28.113281s12.613281-28.113281 28.117188-28.113281c15.503906 0 28.113281 12.609375 28.113281 28.113281 0 4.121094 3.339843 7.460938 7.460937 7.460938s7.460938-3.339844 7.460938-7.460938c0-23.730469-19.304688-43.035156-43.035156-43.035156zm0 0"/><path d="m166.304688 349.273438c-37.042969 0-67.179688 30.136718-67.179688 67.179687s30.136719 67.179687 67.179688 67.179687c37.042968 0 67.179687-30.136718 67.179687-67.179687s-30.136719-67.179687-67.179687-67.179687zm0 119.4375c-28.816407 0-52.261719-23.441407-52.261719-52.257813s23.445312-52.257813 52.261719-52.257813c28.816406 0 52.257812 23.441407 52.257812 52.257813s-23.441406 52.257813-52.257812 52.257813zm0 0"/><path d="m166.304688 373.417969c-23.730469 0-43.035157 19.304687-43.035157 43.035156s19.304688 43.035156 43.035157 43.035156c23.730468 0 43.035156-19.304687 43.035156-43.035156s-19.304688-43.035156-43.035156-43.035156zm0 71.152343c-15.503907 0-28.117188-12.613281-28.117188-28.117187s12.613281-28.113281 28.117188-28.113281c15.503906 0 28.113281 12.609375 28.113281 28.113281s-12.609375 28.117187-28.113281 28.117187zm0 0"/></svg>