<svg width="24" height="24" viewBox="0 0 24 24" fill="none" xmlns="http://www.w3.org/2000/svg">
<path d="M20 14C20 14 16.4148 19 12 19C7.58519 19 4 14 4 14C4 14 7.58519 9 12 9C16.4148 9 20 14 20 14Z" stroke="#FF7987" stroke-miterlimit="10"/>
<path d="M12 18C14.2091 18 16 16.2091 16 14C16 11.7909 14.2091 10 12 10C9.79086 10 8 11.7909 8 14C8 16.2091 9.79086 18 12 18Z" fill="#FF7987"/>
<path d="M12 5V7.5" stroke="#FF7987" stroke-miterlimit="10" stroke-linecap="round" stroke-linejoin="round"/>
<path d="M11.4202 12.8987C11.4202 13.1748 11.1963 13.3987 10.9202 13.3987C10.644 13.3987 10.4202 13.1748 10.4202 12.8987C10.4202 12.6225 10.644 12.3987 10.9202 12.3987C11.1963 12.3987 11.4202 12.6225 11.4202 12.8987Z" fill="white" stroke="white"/>
<path d="M5.91589 6.22852L7.09934 8.86557" stroke="#FF7987" stroke-miterlimit="10" stroke-linecap="round" stroke-linejoin="round"/>
<path d="M1 9.79456L3.18482 11.7124" stroke="#FF7987" stroke-miterlimit="10" stroke-linecap="round" stroke-linejoin="round"/>
<path d="M16.8704 8.86557L18.0538 6.22852" stroke="#FF7987" stroke-miterlimit="10" stroke-linecap="round" stroke-linejoin="round"/>
<path d="M20.8153 11.7124L23.0001 9.79456" stroke="#FF7987" stroke-miterlimit="10" stroke-linecap="round" stroke-linejoin="round"/>
</svg>
