<svg width="12" height="12" viewBox="0 0 12 12" fill="none" xmlns="http://www.w3.org/2000/svg">
<path d="M5.99999 1.0909C5.35532 1.0909 4.71696 1.21787 4.12137 1.46457C3.52577 1.71128 2.98459 2.07288 2.52874 2.52873C1.8422 3.21528 1.37467 4.09 1.18525 5.04227C0.995837 5.99454 1.09306 6.98159 1.46461 7.8786C1.83617 8.77562 2.46537 9.54231 3.27266 10.0817C4.07995 10.6212 5.02907 10.9091 5.99999 10.9091C7.30197 10.9091 8.55061 10.3919 9.47124 9.47124C10.3919 8.55061 10.9091 7.30197 10.9091 5.99999C10.9091 4.69802 10.3919 3.44938 9.47124 2.52874C8.55061 1.60811 7.30197 1.0909 5.99999 1.0909ZM0 5.99999C0 2.68636 2.68636 0 5.99999 0C9.31363 0 12 2.68636 12 5.99999C12 9.31363 9.31363 12 5.99999 12C2.68636 12 0 9.31363 0 5.99999Z" fill="#434D5F"/>
<path d="M6.00052 2.18213C6.07216 2.18213 6.14309 2.19623 6.20927 2.22364C6.27545 2.25105 6.33558 2.29123 6.38623 2.34188C6.43689 2.39253 6.47706 2.45266 6.50448 2.51884C6.53189 2.58502 6.546 2.65596 6.546 2.72759V5.45486H9.27328C9.41794 5.45486 9.55668 5.51232 9.65897 5.61461C9.76126 5.71691 9.81873 5.85564 9.81873 6.00031C9.81873 6.14497 9.76126 6.28371 9.65897 6.386C9.55668 6.48829 9.41794 6.54576 9.27328 6.54576H6.00055C5.85589 6.54576 5.71715 6.48829 5.61485 6.386C5.51256 6.28371 5.45508 6.14498 5.45508 6.00031V2.72759C5.45508 2.65596 5.46918 2.58503 5.4966 2.51885C5.52401 2.45267 5.56418 2.39254 5.61484 2.34189C5.66549 2.29124 5.72562 2.25106 5.7918 2.22365C5.85798 2.19623 5.92891 2.18213 6.00054 2.18213H6.00052Z" fill="#434D5F"/>
</svg>
